HIERARCHY
ROOT hip
{
	OFFSET 0.000000 0.000000 0.000000 
	CHANNELS 6 Xposition Yposition Zposition Xrotation Zrotation Yrotation
	JOINT abdomen
	{
		OFFSET 0.000000 3.402643 0.000000 
		CHANNELS 3 Xrotation Zrotation Yrotation
		JOINT chest
		{
			OFFSET 0.000000 8.438565 -0.680529 
			CHANNELS 3 Xrotation Zrotation Yrotation
			JOINT neck
			{
				OFFSET 0.000000 10.207942 -0.272212 
				CHANNELS 3 Xrotation Zrotation Yrotation
				JOINT head
				{
					OFFSET 0.000000 3.130431 0.000000 
					CHANNELS 3 Xrotation Zrotation Yrotation
					End Site
					{
						OFFSET 0.000000 3.130435 0.000000 
					}
				}
			}
			JOINT lCollar
			{
				OFFSET 3.470700 6.669187 -0.816635 
				CHANNELS 3 Yrotation Zrotation Xrotation
				JOINT lShldr
				{
					OFFSET 3.198488 0.000000 0.000000 
					CHANNELS 3 Zrotation Yrotation Xrotation
					JOINT lForeArm
					{
						OFFSET 10.139888 0.000000 0.000000 
						CHANNELS 3 Yrotation Zrotation Xrotation
						JOINT lHand
						{
							OFFSET 8.370511 0.000000 0.000000 
							CHANNELS 3 Zrotation Yrotation Xrotation
							End Site
							{
								OFFSET 4.083176 0.000000 0.000000 
							}
						}
					}
				}
			}
			JOINT rCollar
			{
				OFFSET -3.470700 6.669187 -0.816635 
				CHANNELS 3 Yrotation Zrotation Xrotation
				JOINT rShldr
				{
					OFFSET -3.198488 0.000000 0.000000 
					CHANNELS 3 Zrotation Yrotation Xrotation
					JOINT rForeArm
					{
						OFFSET -10.139888 0.000000 0.000000 
						CHANNELS 3 Yrotation Zrotation Xrotation
						JOINT rHand
						{
							OFFSET -8.370511 0.000000 0.000000 
							CHANNELS 3 Zrotation Yrotation Xrotation
							End Site
							{
								OFFSET -4.083176 0.000000 0.000000 
							}
						}
					}
				}
			}
		}
	}
	JOINT lThigh
	{
		OFFSET 5.308129 -1.633274 1.361059 
		CHANNELS 3 Xrotation Zrotation Yrotation
		JOINT lShin
		{
			OFFSET -2.041588 -20.007561 0.000000 
			CHANNELS 3 Xrotation Zrotation Yrotation
			JOINT lFoot
			{
				OFFSET 0.000000 -19.190928 -1.224953 
				CHANNELS 3 Xrotation Yrotation Zrotation
				End Site
				{
					OFFSET 0.000000 -2.449906 4.627600 
				}
			}
		}
	}
	JOINT rThigh
	{
		OFFSET -5.308129 -1.633274 1.361059 
		CHANNELS 3 Xrotation Zrotation Yrotation
		JOINT rShin
		{
			OFFSET 2.041588 -20.007561 0.000000 
			CHANNELS 3 Xrotation Zrotation Yrotation
			JOINT rFoot
			{
				OFFSET 0.000000 -19.190928 -1.224953 
				CHANNELS 3 Xrotation Yrotation Zrotation
				End Site
				{
					OFFSET 0.000000 -2.449906 4.627600 
				}
			}
		}
	}
}
MOTION
Frames: 20
Frame Time: 0.016667
-0.267718 41.869251 0.359054 16.884203 -1.083974 -7.667407 0.000000 0.000000 0.000000 1.508061 2.655811 7.009779 2.867983 -2.167958 -0.176025 -25.127762 1.667650 2.989572 -15.025832 6.676960 24.984070 -83.623901 -1.839825 -5.158137 -114.304352 9.181899 94.772530 21.564726 -18.285873 -68.784897 3.688866 -10.910831 24.987936 66.503349 32.753506 63.583954 -38.621655 -106.490440 -62.577866 8.117145 4.274720 -82.183182 -42.234661 17.225163 17.619818 77.876251 12.139940 -0.409856 -32.250233 3.917736 -18.433170 -45.351276 -8.066373 0.682406 70.744247 -2.381665 5.020678 -20.403618 -1.616760 15.482580 
-0.193099 42.497608 0.548334 17.039097 -0.511937 -8.467155 0.000000 0.000000 0.000000 0.331373 2.684720 7.039045 4.190607 -2.783182 -0.225293 -24.218111 2.885241 3.500996 -13.364717 6.014160 24.995138 -83.459778 4.738331 -5.403950 -121.047096 5.656211 122.859329 28.746603 -11.587422 -68.693512 4.311008 -12.562664 24.997120 67.168297 37.527012 62.868286 -33.519245 -107.786888 -57.999378 7.332047 4.424905 -82.363281 -40.242950 16.727480 17.893677 75.250710 11.281383 -0.520179 -30.826420 3.974470 -18.116156 -43.994404 -7.977192 0.656200 68.079964 -2.772843 4.703173 -17.973467 -0.429281 15.734338 
-0.115796 43.378948 0.737005 17.540051 0.173487 -9.267594 0.000000 0.000000 0.000000 -1.302925 2.645784 7.068309 5.611135 -3.349574 -0.264363 -23.634640 3.351326 3.971753 -11.421490 5.335786 24.983570 -82.651627 10.550661 -6.147640 -124.020332 1.421283 134.688431 27.206268 -5.970860 -64.976791 4.963754 -14.093643 24.984734 66.901672 41.331196 61.708794 -28.703444 -109.259521 -53.995861 6.482755 4.368400 -82.517418 -38.149853 16.050829 18.096912 71.410271 10.236657 -0.698414 -28.231874 3.334049 -15.940951 -42.506279 -8.114399 0.511234 64.253288 -2.938173 4.330416 -14.481412 1.490662 15.185988 
-0.038497 44.260239 0.925665 18.028372 0.875012 -10.059646 0.000000 0.000000 0.000000 -2.936500 2.616599 7.087817 7.043600 -3.925720 -0.323515 -23.032953 3.826389 4.443893 -9.483197 4.658909 24.996754 -81.906647 16.369356 -6.821806 -126.062218 -3.324814 146.305481 26.040829 -0.267397 -61.429924 5.623597 -15.612802 24.998058 66.504456 45.138344 60.454388 -24.530687 -110.817741 -50.619888 5.643841 4.316628 -82.683434 -36.063950 15.390385 18.297436 67.596710 9.182394 -0.810237 -25.595030 2.773753 -13.753860 -41.009575 -8.231150 0.385679 60.415489 -3.113673 3.939796 -10.971287 3.376525 14.502899 
0.024434 45.331059 1.092699 18.735260 1.515825 -10.765399 0.000000 0.000000 0.000000 -4.710532 2.635870 7.107328 8.348700 -4.492098 -0.362513 -22.729200 3.998671 4.963605 -7.695159 4.269320 24.983892 -80.983299 21.348349 -7.916720 -124.868958 -4.729782 140.739456 27.834261 1.094606 -61.351109 6.173895 -16.913319 24.991974 65.143715 48.134583 58.767857 -20.162222 -112.280495 -47.442459 4.831347 4.136338 -82.823380 -34.061062 14.656901 18.439781 62.823650 8.284538 -0.866081 -21.510687 1.243162 -10.095417 -39.447521 -8.485004 0.228608 55.655998 -2.771182 3.555411 -6.726369 5.615217 12.831047 
0.087361 46.401840 1.259722 19.422813 2.172618 -11.463391 0.000000 0.000000 0.000000 -6.474786 2.655138 7.126839 9.655447 -5.058464 -0.412003 -22.432772 4.170418 5.473604 -5.912196 3.883293 24.995001 -80.137512 26.340849 -8.972730 -123.818802 -6.238535 135.188324 29.627434 2.443322 -61.230175 6.719851 -18.206617 24.996847 63.540287 51.106728 56.850685 -16.257334 -113.811218 -44.733139 4.030536 3.960552 -82.964973 -32.057850 13.913636 18.554317 58.074844 7.369783 -0.856764 -17.319160 -0.040690 -6.328704 -37.881836 -8.718840 0.077805 50.914333 -2.468387 3.168958 -2.396171 7.700245 10.963710 
0.108613 47.593250 1.373507 20.151011 2.522552 -11.925557 0.000000 0.000000 0.000000 -7.926091 2.751863 7.157030 10.531109 -5.566242 -0.442117 -22.461628 4.670919 6.084794 -5.106277 4.119907 24.995396 -79.951851 30.467342 -9.765538 -119.351036 -5.363248 118.895920 34.451859 -1.191699 -65.636986 6.794270 -18.892735 24.995657 60.688232 53.201073 54.428867 -12.495212 -115.090698 -42.595818 3.418141 3.844695 -83.068954 -30.428165 13.426341 18.673140 52.852306 6.928397 -0.765950 -11.431359 -3.176560 -1.083581 -36.333553 -8.885693 -0.069956 45.764626 -1.618008 2.906377 2.179624 9.395899 8.383785 
0.129861 48.784657 1.487289 20.871918 2.880767 -12.378822 0.000000 0.000000 0.000000 -9.376559 2.858326 7.177022 11.409381 -6.073997 -0.491740 -22.479988 5.159951 6.707826 -4.295122 4.369121 24.991566 -79.814354 34.584145 -10.561843 -114.824821 -5.764283 102.580887 39.557590 -4.430366 -70.348946 6.868633 -19.578638 25.000000 57.559376 55.209526 51.733067 -9.028932 -116.422089 -40.754612 2.815817 3.725448 -83.174461 -28.791628 12.932444 18.785154 47.643990 6.490707 -0.608478 -5.247073 -5.756762 4.505920 -34.760792 -9.041781 -0.205647 40.628437 -0.806994 2.555719 6.830981 10.909447 5.661110 
0.104037 49.908314 1.554303 21.048134 2.878705 -12.564613 0.000000 0.000000 0.000000 -9.880913 2.955090 7.197526 12.234224 -6.347405 -0.511177 -21.858940 5.304470 6.797143 -4.384622 4.910108 24.994579 -79.822174 37.487183 -11.292226 -112.276619 -6.621883 92.630615 39.820835 -8.430867 -73.847610 6.245560 -19.326139 24.992756 53.251877 56.861580 48.382507 -7.091780 -117.040894 -40.027500 2.541576 3.592445 -83.213379 -27.398655 12.906519 19.004463 43.602116 6.353079 -0.438431 0.440107 -9.082732 5.758300 -33.193676 -9.050269 -0.283141 36.763802 0.039051 2.386085 9.803467 11.030486 4.064015 
0.078212 51.031967 1.621313 21.214588 2.876614 -12.750406 0.000000 0.000000 0.000000 -10.383970 3.061533 7.217553 13.050533 -6.611037 -0.541408 -21.226496 5.458618 6.887402 -4.477941 5.438871 24.989840 -79.876282 40.385353 -12.049293 -109.908005 -7.906515 82.708511 40.323780 -12.407463 -77.408859 5.638580 -19.078560 24.995775 48.597687 58.352253 44.689728 -5.226715 -117.676674 -39.360432 2.277204 3.457931 -83.252441 -25.993761 12.878650 19.223265 39.584869 6.221167 -0.271227 6.207629 -12.228076 7.364993 -31.632484 -9.060659 -0.342005 32.873127 0.869001 2.131746 12.789080 11.091006 2.470247 
0.041153 52.013000 1.663933 21.055847 2.790351 -12.798217 0.000000 0.000000 0.000000 -10.471860 3.061533 7.217552 14.019030 -6.669617 -0.551113 -21.199728 5.392396 6.739728 -4.680279 5.549703 24.993021 -79.389023 42.663502 -13.794350 -110.626083 -9.615754 81.205147 38.923599 -13.361040 -77.157921 5.037675 -18.626213 24.996677 43.593273 59.601780 40.823055 -3.309399 -117.747437 -37.927380 2.195454 3.260769 -83.244194 -25.028568 13.065678 19.433365 37.480373 6.015704 -0.220233 9.541057 -14.226665 6.763003 -30.349590 -9.042636 -0.395872 30.506121 1.425531 2.050005 14.133397 10.355334 1.992257 
0.004093 52.994003 1.706550 20.887024 2.704015 -12.856278 0.000000 0.000000 0.000000 -10.557998 3.071155 7.227306 14.977780 -6.728197 -0.560816 -21.172607 5.326098 6.591151 -4.887290 5.647601 24.994942 -78.999611 44.953426 -15.586621 -111.396591 -11.306658 79.676216 37.523926 -14.306926 -76.880791 4.440778 -18.184147 25.000000 38.246098 60.669498 36.614853 -1.405894 -117.846878 -36.501625 2.123338 3.062486 -83.235344 -24.052486 13.261565 19.655531 35.395947 5.821815 -0.116731 12.828649 -16.299133 6.268886 -29.050079 -9.003406 -0.433103 28.107719 1.962238 1.909796 15.485085 9.626970 1.537289 
-0.036103 53.808582 1.722189 20.470886 2.571321 -12.795966 0.000000 0.000000 0.000000 -10.314955 2.993780 7.207283 15.885212 -6.650075 -0.560812 -21.592491 5.183081 6.344469 -5.087042 5.543734 24.995636 -78.260239 46.512348 -18.356735 -114.553894 -13.358955 83.814812 35.673294 -13.390853 -74.968750 3.961286 -17.829119 24.990929 33.113110 61.483063 32.662701 0.904290 -117.654205 -33.931263 2.281710 2.874236 -83.168884 -23.608130 13.597260 19.856913 35.373951 5.622102 -0.196257 13.748441 -17.067915 4.947354 -28.122961 -8.945042 -0.460790 27.286976 2.235635 1.903790 15.341959 8.427805 2.062671 
-0.076298 54.623138 1.737822 20.064240 2.438562 -12.736162 0.000000 0.000000 0.000000 -10.080400 2.926086 7.187271 16.791615 -6.581730 -0.551106 -22.011124 5.039831 6.098689 -5.282599 5.430977 24.996025 -77.602386 48.106167 -21.178089 -117.572487 -15.634923 87.872688 33.868847 -12.411777 -73.097511 3.492419 -17.460775 24.999445 27.750048 62.125938 28.480423 3.255323 -117.503487 -31.313900 2.439185 2.686031 -83.112175 -23.160873 13.921875 20.036146 35.336811 5.401860 -0.214285 14.642560 -17.936081 3.630176 -27.180193 -8.865161 -0.490506 26.454283 2.490049 1.878959 15.222618 7.228244 2.566350 
-0.106958 55.199017 1.707862 19.674704 2.297436 -12.539418 0.000000 0.000000 0.000000 -9.559665 2.877704 7.177512 17.017736 -6.620780 -0.560810 -22.113573 5.185580 6.089849 -5.410740 6.106038 24.992626 -77.050262 48.424274 -22.796946 -119.157829 -17.882164 88.542854 32.737541 -12.264587 -72.266907 3.114879 -17.819206 24.993076 23.978481 62.765553 25.343828 6.037122 -117.584206 -27.621012 2.953925 2.578740 -82.988266 -23.620943 14.343170 20.113445 37.601635 5.254714 -0.384677 13.151855 -17.402061 4.964913 -26.995501 -8.777665 -0.458664 27.435848 2.474694 1.937154 13.876759 6.020252 3.559070 
-0.137618 55.774864 1.677898 19.291870 2.165606 -12.342750 0.000000 0.000000 0.000000 -9.048676 2.829319 7.167267 17.252594 -6.669605 -0.560813 -22.216064 5.331334 6.081933 -5.542950 6.789933 24.991741 -76.513512 48.752174 -24.430305 -120.728661 -20.157400 89.158035 31.616922 -12.116909 -71.437103 2.744456 -18.163900 24.998299 20.046864 63.317684 22.043505 8.772039 -117.731972 -23.970308 3.477865 2.468002 -82.865120 -24.081770 14.765305 20.177542 39.852337 5.103575 -0.533877 11.647217 -16.916594 6.314076 -26.812056 -8.680349 -0.447854 28.437016 2.431552 2.038239 12.578356 4.808122 4.568164 
-0.156687 56.167667 1.626834 18.923948 2.062720 -12.078191 0.000000 0.000000 0.000000 -8.420924 2.703473 7.146807 17.240175 -6.513374 -0.551099 -22.073687 5.059891 6.029740 -5.745071 7.743925 24.993229 -76.171333 48.519882 -24.759747 -120.814735 -21.560106 87.200821 31.014633 -12.486345 -71.295181 2.435652 -19.064997 24.996428 18.098619 63.944294 20.069201 11.104686 -117.850662 -20.872755 3.909407 2.417750 -82.771072 -24.772312 15.074229 20.186491 42.261715 5.172680 -0.645890 10.704571 -16.311602 8.044999 -27.000725 -8.603095 -0.451404 30.030252 2.289459 2.200254 11.557966 4.402439 4.767913 
-0.175753 56.560452 1.575771 18.564831 1.959583 -11.813327 0.000000 0.000000 0.000000 -7.793521 2.577671 7.116638 17.236490 -6.357152 -0.531670 -21.939564 4.798106 5.978556 -5.945807 8.698872 24.990725 -75.839302 48.282028 -25.090982 -120.966354 -22.972740 85.223579 30.419365 -12.857979 -71.138962 2.130266 -19.973310 25.000000 16.039114 64.550545 17.980021 13.408973 -118.023621 -17.809755 4.331491 2.366571 -82.667709 -25.454863 15.395100 20.200516 44.671200 5.230739 -0.758422 9.766627 -15.723390 9.801696 -27.170828 -8.523072 -0.435028 31.631042 2.162652 2.333759 10.546170 3.994718 4.970798 
-0.180344 56.846100 1.529150 18.203432 1.961584 -11.529963 0.000000 0.000000 0.000000 -7.163321 2.326016 7.056833 17.194193 -6.122796 -0.520875 -21.883440 4.439137 5.926697 -6.174319 9.435995 24.988289 -75.626488 47.912743 -24.999609 -120.800880 -23.617971 83.094872 29.832729 -13.448549 -71.089569 1.903927 -20.727913 24.996908 14.758009 65.013351 16.566284 15.055486 -117.983910 -15.687122 4.596152 2.259232 -82.612381 -26.041800 15.523572 20.152941 46.560059 5.389848 -0.812475 9.518403 -15.373432 9.885997 -27.433901 -8.572119 -0.415563 33.142281 2.050539 2.433406 10.074068 4.318504 4.509840 
-0.184931 57.131733 1.482532 17.840136 1.973115 -11.246933 0.000000 0.000000 0.000000 -6.531403 2.083987 6.997128 17.141212 -5.888448 -0.501430 -21.825665 4.089811 5.875047 -6.402792 10.173249 24.988602 -75.398949 47.555164 -24.878031 -120.653870 -24.274792 80.965775 29.238899 -14.027037 -71.039902 1.681355 -21.490213 25.000000 13.447075 65.459702 15.115105 16.728363 -117.961723 -13.537711 4.859698 2.140857 -82.547516 -26.624592 15.656282 20.111532 48.456547 5.561740 -0.892970 9.286303 -15.034997 9.940527 -27.698092 -8.611290 -0.417258 34.632545 1.933211 2.537865 9.565619 4.657259 4.076699 
